<svg width="706" height="705" viewBox="0 0 706 705" fill="none" xmlns="http://www.w3.org/2000/svg">
<path d="M332.102 0C146.88 10.8154 0 164.295 0 352.119C0 445.517 36.3732 530.352 95.6678 593.434V491.718C73.0527 450.223 60.1522 402.68 60.1522 352.097C60.1522 269.821 94.1843 195.521 148.897 142.354V561.88V639.831C169.079 654.145 190.81 666.421 213.824 676.297V609.655V607.451V94.5834C230.68 85.4692 248.534 77.9731 267.176 72.2702V631.964C267.132 631.946 267.093 631.929 267.049 631.92V694.258C288.019 699.502 309.71 702.917 331.971 704.225V629.724H332.098V174.621V60.3003V0H332.102Z" fill="url(#paint0_linear_2_5)"/>
<path d="M704.446 319.646H644.005C644.005 319.655 644.01 319.664 644.01 319.677H529.613V384.561H644.01C631.407 498.61 553.239 592.87 447.992 628.933V75.3052C536.374 105.591 605.637 176.917 633.039 266.519H695.476C659.536 122.437 535.008 13.4043 383.035 0.603394V60.9955C383.048 60.9955 383.061 60.9955 383.074 60.9955V629.72V643.225V703.538C563.942 688.275 706 536.82 706 352.11C705.996 341.164 705.422 330.344 704.446 319.646Z" fill="url(#paint1_linear_2_5)"/>
<defs>
<linearGradient id="paint0_linear_2_5" x1="263.894" y1="52" x2="-151.362" y2="302.718" gradientUnits="userSpaceOnUse">
<stop offset="0.28125" stop-color="#A7C8EC"/>
<stop offset="0.557292" stop-color="#F3F9FF"/>
<stop offset="0.833333" stop-color="#A7C8EC"/>
</linearGradient>
<linearGradient id="paint1_linear_2_5" x1="639.669" y1="52.5081" x2="230.282" y2="293.323" gradientUnits="userSpaceOnUse">
<stop offset="0.28125" stop-color="#A7C8EC"/>
<stop offset="0.557292" stop-color="#F3F9FF"/>
<stop offset="0.833333" stop-color="#A7C8EC"/>
</linearGradient>
</defs>
</svg>
